<svg height="512" viewBox="0 0 512 512" width="512" xmlns="http://www.w3.org/2000/svg"><path d="m235.35568 7.9999988c-23.39467 34.2008472-42.16463 71.9448022-55.67104 112.0520212 95.80769 17.87121 182.58223 72.86108 244.51279 155.00001 24.90846-32.93044 45.34465-69.62287 60.70809-108.95203-67.81676-77.630287-154.3519-132.454815-249.54984-158.1000012zm188.84175 267.0520312c-61.92956 70.40918-148.71006 117.57779-244.51279 132.91244 13.58213 34.38108 32.38813 66.74475 55.86481 96.03553 95.10502-22.01678 181.59486-69.00584 249.35607-135.49596-15.36674-33.72106-35.79401-65.21706-60.70809-93.45201zm-325.564817-152.5458c-16.251934.1984-32.455925 1.15072-48.631144 2.96939-30.518549 97.68654-30.544667 201.45338-.06617 299.15016 43.178448 4.85915 86.861501 3.8989 129.747651-2.84043-32.98466-81.87373-37.50158-171.27377-12.98098-255.68535 3.69619-12.84476 8.02461-25.46333 12.9165-37.78132-26.7764-4.20509-53.90065-6.1256-80.987546-5.81246z"/></svg>